# xmcd
#
# Track frame offsets: 
#        150
#        19467
#        38925
#        58348
#        81368
#        98746
#        112738
#        131808
#        153118
#        168062
#        184346
#        197580
#        216879
#        230959
#        248231
#        268253
#        285772
#        305301
#
# Disc length: 4298 seconds
#
# Revision: 0
# Processed by: cddbd v1.4PL0 Copyright (c) Steve Scherf et al.
# Submitted via: ExactAudioCopy v0.95a3
#
DISCID=fd10c812
DTITLE=Various Artist - Trio Sertanejo
DYEAR=2003
DGENRE=Sertanejo
TTITLE0=Chrystian and Ralf - Um cantinho do seu coração
TTITLE1=Chrystian and Ralf - Cheiro de shampoo
TTITLE2=Chrystian and Ralf - Chora peito
TTITLE3=Chrystian and Ralf - Iolanda
TTITLE4=Chrystian and Ralf - Mia Gioconda
TTITLE5=Chrystian and Ralf - O que tiver que vir, virá
TTITLE6=Chitãozinho and Xororó - Frio da solidão
TTITLE7=Chitãozinho and Xororó - De coração pra coração
TTITLE8=Chitãozinho and Xororó - Se Deus me ouvisse
TTITLE9=Chitãozinho and Xororó - Faz um ano
TTITLE10=Chitãozinho and Xororó - Fio de cabelo
TTITLE11=Chitãozinho and Xororó - A mais bonita das noites
TTITLE12=Bruno and Marrone - Apenas um sorriso
TTITLE13=Bruno and Marrone - Parabéns pro nosso amor
TTITLE14=Bruno and Marrone - Bijuteria
TTITLE15=Bruno and Marrone - Medo
TTITLE16=Bruno and Marrone - Meu jeito de sentir
TTITLE17=Bruno and Marrone - Vida vazia
EXTD=
EXTT0=
EXTT1=
EXTT2=
EXTT3=
EXTT4=
EXTT5=
EXTT6=
EXTT7=
EXTT8=
EXTT9=
EXTT10=
EXTT11=
EXTT12=
EXTT13=
EXTT14=
EXTT15=
EXTT16=
EXTT17=
PLAYORDER=
